<?xml version="1.0" encoding="utf-8"?>
<!-- Generator: Adobe Illustrator 24.0.2, SVG Export Plug-In . SVG Version: 6.00 Build 0)  -->
<svg version="1.1" id="Capa_1" xmlns="http://www.w3.org/2000/svg" xmlns:xlink="http://www.w3.org/1999/xlink" x="0px" y="0px"
	 viewBox="0 0 1000 1000" style="enable-background:new 0 0 1000 1000;" xml:space="preserve">
<style type="text/css">
	.st0{fill:#005686;}
</style>
<g>
	<g>
		<g>
			<g>
				<path class="st0" d="M821,787.9H646.1c-7.2,0-13,5.8-13,13c0,7.2,5.8,13,13,13H821c7.2,0,13-5.8,13-13
					C834,793.8,828.2,787.9,821,787.9z"/>
			</g>
		</g>
		<g>
			<g>
				<path class="st0" d="M601.1,787.9h-0.2c-7.2,0-13,5.8-13,13c0,7.2,5.8,13,13,13h0.2c7.2,0,13-5.8,13-13
					C614.1,793.8,608.3,787.9,601.1,787.9z"/>
			</g>
		</g>
		<g>
			<g>
				<path class="st0" d="M556.6,787.9H179c-7.2,0-13,5.8-13,13c0,7.2,5.8,13,13,13h377.6c7.2,0,13-5.8,13-13
					C569.7,793.8,563.8,787.9,556.6,787.9z"/>
			</g>
		</g>
		<g>
			<g>
				<path class="st0" d="M305.2,568.6c-2.4-2.4-5.8-3.8-9.2-3.8c-3.4,0-6.8,1.4-9.2,3.8c-2.4,2.4-3.8,5.8-3.8,9.2
					c0,3.4,1.4,6.8,3.8,9.2c2.4,2.4,5.8,3.8,9.2,3.8s6.8-1.4,9.2-3.8c2.4-2.4,3.8-5.8,3.8-9.2C309.1,574.4,307.7,571.1,305.2,568.6z
					"/>
			</g>
		</g>
		<g>
			<g>
				<path class="st0" d="M510.5,591c-27.3,0-49.5,22.2-49.5,49.5s22.2,49.5,49.5,49.5c27.3,0,49.5-22.2,49.5-49.5
					S537.8,591,510.5,591z M510.5,663.9c-12.9,0-23.4-10.5-23.4-23.4s10.5-23.4,23.4-23.4c12.9,0,23.4,10.5,23.4,23.4
					S523.4,663.9,510.5,663.9z"/>
			</g>
		</g>
		<g>
			<g>
				<path class="st0" d="M821,717.5h-2.8c9.9-12.2,15.9-27.7,15.9-44.6c0-0.1,0-0.1,0-0.2V529.8c0-37.8-27.2-69.4-63-76.2v-42.7
					c0-12.6-10.2-22.8-22.8-22.8h-3.3v-23c0-7.2-5.8-13-13-13c-7.2,0-13,5.8-13,13v23h-3.3c-12.6,0-22.8,10.2-22.8,22.8v41.3h-25.4
					l-62.6-111.8c-2.3-4.1-6.7-6.7-11.4-6.7H444.7c-7.2,0-13,5.8-13,13v218h-86.9c-7.2,0-13,5.8-13,13s5.8,13,13,13h76.5
					c-0.5,3.9,0.8,8,3.7,11l0.2,0.2c-0.8,1.7-1.5,3.5-2.2,5.2h-0.3c-6.1,0-11.4,4.2-12.7,10.1c-0.8,3.3-1.3,6.6-1.8,10H192.1v-36.5
					h50.8c7.2,0,13-5.8,13-13s-5.8-13-13-13h-63.9c-7.2,0-13,5.8-13,13v62.6c0,7.2,5.8,13,13,13h58.5l-67.8,67.8c0,0,0,0,0,0
					c-2.3,2.4-3.8,5.6-3.8,9.2c0,7.2,5.8,13,13,13H821c7.2,0,13-5.8,13-13C834,723.3,828.2,717.5,821,717.5z M718.8,414.2h26.1v38
					h-26.1V414.2z M508.6,359.8h77l51.8,92.4H508.7L508.6,359.8L508.6,359.8z M210.6,717.5l63.9-63.9h38.8l-63.9,63.9H210.6z
					 M286.3,717.5l63.9-63.9H389L325,717.5H286.3z M362,717.5l49.8-49.8c2.3,3.7,6.4,6,11,6h0.3c0.7,1.8,1.4,3.5,2.2,5.2l-0.2,0.2
					c-4.3,4.3-5.1,11-1.8,16.2c5.2,8.2,11.5,15.7,18.8,22.2L362,717.5L362,717.5z M569.8,689.7c-3,3.7-6.4,7-10.1,10.1
					c-4.2-3.5-10.2-4-14.9-1.2c-5.5,3.2-11.3,5.7-17.4,7.2c-5.4,1.4-9.2,6-9.7,11.4c-4.7,0.4-9.5,0.4-14.3,0
					c-0.5-5.4-4.4-10-9.7-11.4c-6.1-1.6-11.9-4-17.4-7.2c-4.8-2.8-10.7-2.3-14.9,1.2c-3.7-3-7-6.4-10.1-10.1
					c3.5-4.2,4-10.2,1.2-14.9c-3.2-5.5-5.7-11.3-7.2-17.4c-1.4-5.4-6-9.2-11.4-9.7c-0.2-2.4-0.3-4.7-0.3-7.1c0,0,0,0,0,0
					c0-2.4,0.1-4.8,0.3-7.1c5.4-0.5,10-4.4,11.4-9.7c1.6-6.1,4-11.9,7.2-17.4c2.8-4.8,2.3-10.7-1.2-14.9c3-3.7,6.4-7,10.1-10.1
					c4.2,3.5,10.2,4,14.9,1.2c5.5-3.2,11.3-5.7,17.4-7.2c5.4-1.4,9.2-6,9.7-11.4c4.7-0.4,9.5-0.4,14.3,0c0.5,5.4,4.4,10,9.7,11.4
					c6.1,1.6,11.9,4,17.4,7.2c4.8,2.8,10.7,2.3,14.9-1.2c3.7,3,7,6.4,10.1,10.1c-3.5,4.2-4,10.2-1.2,14.9c3.2,5.5,5.7,11.3,7.2,17.4
					c1.4,5.4,6,9.2,11.4,9.7c0.2,2.4,0.3,4.7,0.3,7.1s-0.1,4.8-0.3,7.1c-5.4,0.5-10,4.4-11.4,9.7c-1.6,6.1-4,11.9-7.2,17.4
					C565.8,679.5,566.3,685.5,569.8,689.7z M579,717.5c7.3-6.5,13.6-14,18.8-22.2c3.2-5.2,2.5-11.9-1.8-16.2l-0.2-0.2
					c0.8-1.7,1.5-3.5,2.2-5.2h0.3c6.1,0,11.4-4.2,12.7-10.1c0.7-3.3,1.3-6.6,1.8-10h82.6c-1.8,6.2-2.7,12.6-2.7,19.4
					c0,16.9,6,32.4,15.9,44.6H579z M709.3,627.5c-0.4,0-0.8-0.1-1.1-0.1h-95.3c-0.4-3.4-1-6.7-1.8-10c-1.4-5.9-6.6-10.1-12.7-10.1
					H598c-0.7-1.8-1.4-3.5-2.2-5.2l0.2-0.2c4.3-4.3,5.1-11,1.8-16.2c-8.2-13.1-19.5-24.3-32.5-32.6c-5.2-3.2-11.9-2.5-16.2,1.8
					l-0.2,0.2c-1.7-0.8-3.5-1.5-5.2-2.2v-0.3c0-6.1-4.2-11.4-10.1-12.7c-15-3.4-31-3.4-46,0c-5.9,1.4-10.1,6.6-10.1,12.7v0.3
					c-1.8,0.7-3.5,1.4-5.2,2.2l-0.2-0.2c-3.8-3.8-9.4-4.8-14.2-2.9V359.8h24.8v105.4c0,7.2,5.8,13,13,13h260.9
					c28.4,0,51.5,23.1,51.5,51.5v88.3c-12.2-9.9-27.7-15.9-44.6-15.9C741.7,602.2,722.2,612.1,709.3,627.5z M763.4,717.5
					c-24.6,0-44.6-20-44.6-44.6s20-44.6,44.6-44.6c24.5,0,44.5,19.9,44.6,44.4v0.2c0,0,0,0,0,0.1
					C807.9,697.5,787.9,717.5,763.4,717.5z"/>
			</g>
		</g>
		<g>
			<g>
				<path class="st0" d="M725.5,221.3c-12.9-12.9-30.1-20-48.3-20c-18.3,0-35.4,7.1-48.3,20c-5.1,5.1-5.1,13.4,0,18.5
					c5.1,5.1,13.4,5.1,18.5,0c8-8,18.6-12.4,29.9-12.4c11.3,0,21.9,4.4,29.9,12.4c2.5,2.5,5.9,3.8,9.2,3.8s6.7-1.3,9.2-3.8
					C730.6,234.6,730.6,226.4,725.5,221.3z"/>
			</g>
		</g>
		<g>
			<g>
				<path class="st0" d="M764.6,182.2c-23.4-23.4-54.4-36.2-87.4-36.2c-33,0-64.1,12.9-87.4,36.2c-5.1,5.1-5.1,13.4,0,18.5
					c5.1,5.1,13.4,5.1,18.5,0c18.4-18.4,42.9-28.6,69-28.6c26.1,0,50.5,10.1,69,28.6c2.5,2.5,5.9,3.8,9.2,3.8s6.7-1.3,9.2-3.8
					C769.7,195.5,769.7,187.3,764.6,182.2z"/>
			</g>
		</g>
		<g>
			<g>
				<path class="st0" d="M686.4,260.6c-2.4-2.4-5.8-3.8-9.2-3.8c-3.4,0-6.8,1.4-9.2,3.8c-2.4,2.4-3.8,5.8-3.8,9.2s1.4,6.8,3.8,9.2
					c2.4,2.4,5.8,3.8,9.2,3.8c3.4,0,6.8-1.4,9.2-3.8c2.4-2.4,3.8-5.8,3.8-9.2C690.2,266.4,688.8,263,686.4,260.6z"/>
			</g>
		</g>
	</g>
	<path class="st0" d="M500,995.2c-66.8,0-131.7-13.1-192.7-38.9c-59-24.9-111.9-60.6-157.4-106.1c-45.5-45.5-81.2-98.4-106.1-157.4
		C17.9,631.7,4.8,566.8,4.8,500s13.1-131.7,38.9-192.7c24.9-59,60.6-111.9,106.1-157.4s98.4-81.2,157.4-106.1
		C368.3,17.9,433.2,4.8,500,4.8c66.8,0,131.7,13.1,192.7,38.9c59,24.9,111.9,60.6,157.4,106.1c45.5,45.5,81.2,98.4,106.1,157.4
		c25.8,61.1,38.9,125.9,38.9,192.7s-13.1,131.7-38.9,192.7c-24.9,59-60.6,111.9-106.1,157.4c-45.5,45.5-98.4,81.2-157.4,106.1
		C631.7,982.1,566.8,995.2,500,995.2z M500,18.8C234.7,18.8,18.8,234.7,18.8,500c0,265.3,215.9,481.2,481.2,481.2
		S981.2,765.3,981.2,500C981.2,234.7,765.3,18.8,500,18.8z"/>
</g>
</svg>
