<?xml version="1.0" encoding="utf-8"?>
<!-- Generator: Adobe Illustrator 24.0.2, SVG Export Plug-In . SVG Version: 6.00 Build 0)  -->
<svg version="1.1" id="Capa_1" xmlns="http://www.w3.org/2000/svg" xmlns:xlink="http://www.w3.org/1999/xlink" x="0px" y="0px"
	 viewBox="0 0 1000 1000" style="enable-background:new 0 0 1000 1000;" xml:space="preserve">
<style type="text/css">
	.st0{fill:#005686;}
</style>
<g id="Guides_For_Artboard_27_">
</g>
<g id="Artwork_26_">
</g>
<g id="Guides_For_Artboard_18_">
</g>
<g id="Artwork_17_">
</g>
<g>
	<g>
		<path class="st0" d="M444.3,853c-12.9,0-28.4,0-43.9-0.1c-15.6,0-31.3-0.1-44.4-0.1c-15.2,0-23.8-6.2-28.4-11.4
			c-8.7-10-8.5-22.7-8.2-26.7v-25.2c0-7-3.6-18.3-20.9-32.6c-15.8-9-115.6-66.3-140.1-90.9c-17.7-17.8-39-63.2-47.3-81.9
			c-13.1-29.5-27.3-67.1-27.8-84.3c-0.7-26.9,5.2-101.2,5.5-104.3c2.9-35,6.7-41.7,10.7-45.9c4.7-5,12.8-10,24.7-5.8
			c25.1,8.8,28.3,38.2,31.4,66.6c0.3,2.4,0.8,7.8,1.6,14.5c1.5,14.4,4.5,42.3,5.7,52.2c0.6,0.3,1.3,0.6,1.9,0.8
			c1.2,0.5,2.6,1.1,4,1.8c0.2,0.1,0.3,0.1,0.5,0.2c38,13.4,66,44.1,82.8,67.5c2.8,3.9,6.1,7.4,9.6,11.1c2.5,2.6,5,5.3,7.5,8.3
			c1.8,2.2,4.9,4.4,7.6,6.3c0.8,0.6,1.7,1.2,2.6,1.7l0.6,0.4c1.5,1,4,2.7,5.2,3.1c71.5,4.8,102.4,23.2,112.4,30.8l0.1,0.1
			c0.2,0.2,0.5,0.4,0.9,0.7c24.7,18.8,68.3,59.5,82,120.8l0.1,0.4c0.5,2.6,4.6,25.1,0.8,40c-0.3,2-0.5,4-0.8,6.1
			c-0.8,5.8-1.5,11.4-1.7,16.8l0,13.8c0,0.6,0.1,1.7,0.1,2.8c0.5,7.7,1.3,22-8.4,32.4C464.2,849.6,455.4,853,444.3,853z
			 M346.4,817.1c-0.1,1.5,0.1,4.8,1.6,6.5c1.7,1.8,5.6,2.1,7.9,2.1c13.1,0,28.8,0,44.5,0.1c15.5,0,31,0.1,43.9,0.1
			c4,0,5.9-0.8,6.3-1.3c1.7-1.8,1.3-9.3,1.1-12.2c-0.1-1.6-0.2-3.1-0.2-4.5l0-14.5c0.2-6.8,1.1-13.3,2-19.6c0.3-2.2,0.6-4.5,0.9-6.7
			l0.1-1.2l0.3-1.1c1.5-5.2,0.7-18.9-1.1-28.1c-11.9-52.7-50.1-88.3-71.9-104.9c-0.5-0.4-0.8-0.6-1.1-0.9
			c-4.6-3.5-30.3-20.7-98.1-25.3l-0.2,0c-7.4-0.6-13.4-4.6-17.8-7.5l-0.6-0.4c-0.9-0.6-1.9-1.3-2.8-1.9c-4.2-2.9-9.1-6.5-13.1-11.2
			c-2-2.4-4.2-4.8-6.5-7.2c-3.9-4.2-8-8.5-11.8-13.9c-14.5-20.2-38.3-46.6-69.7-57.7c-0.7-0.2-1.2-0.4-1.6-0.6l-0.5-0.2l-0.5-0.2
			c-1.3-0.6-2.6-1.2-3.8-1.7c-5.8-2.5-13.7-6-16.8-15.6l-0.1-0.5c-0.5-1.9-0.8-2.8-6.8-58.9c-0.7-6.7-1.3-12.1-1.6-14.5
			c-2.1-19.1-4.2-34.7-9.6-41.1c-0.9,4.5-2,12.3-3.1,25.4c-0.1,0.7-6.1,75.9-5.4,101.4c0.2,8.9,9.1,37.2,25.4,74
			c15.6,35,31.9,63.9,41.7,73.8c19.1,19.2,104.1,69.3,135.3,87l1.1,0.6l1.6,1.3c20.6,16.9,31.1,35,31.1,53.7v27L346.4,817.1z
			 M285.1,578.5C285.1,578.5,285.1,578.5,285.1,578.5L285.1,578.5z M114.7,369.4C114.7,369.4,114.7,369.4,114.7,369.4
			S114.7,369.4,114.7,369.4z"/>
		<path class="st0" d="M555.2,853c-11.2,0-19.9-3.3-26.1-9.9c-9.8-10.4-8.9-24.7-8.4-32.4c0.1-1.1,0.1-2.2,0.1-2.8l0-13.8
			c-0.2-5.4-1-10.9-1.7-16.8c-0.3-2-0.5-4-0.8-6.1c-3.8-14.8,0.3-37.4,0.8-40l0.1-0.4c13.7-61.3,57.3-102,82-120.8
			c0.4-0.3,0.7-0.5,0.9-0.7c10-7.7,40.9-26,112.5-30.9c1.1-0.4,3.6-2.1,5.2-3.1l0.6-0.4c0.8-0.6,1.7-1.1,2.6-1.7
			c2.7-1.9,5.7-4.1,7.6-6.3c2.5-2.9,5-5.7,7.5-8.3c3.5-3.7,6.8-7.2,9.6-11.1c16.8-23.4,44.7-54.1,82.8-67.5c0.2-0.1,0.4-0.1,0.5-0.2
			c1.5-0.7,2.8-1.3,4-1.8c0.6-0.3,1.3-0.6,1.9-0.8c1.2-9.9,4.2-37.8,5.7-52.3c0.7-6.7,1.3-12.1,1.6-14.5
			c3.1-28.4,6.2-57.8,31.4-66.6c11.9-4.2,20,0.8,24.7,5.8c4,4.2,7.8,10.9,10.6,45.7c0.6,5.2,8.5,79.1,5.4,105.7
			c-3.3,28.6-56.8,143.4-74.2,164.1c-16.1,19.2-117.9,78.5-140.8,91.7c-17.3,14.3-21,25.6-21,32.6v25.2c0.3,4.1,0.6,16.7-8.2,26.7
			c-4.6,5.2-13.2,11.4-28.4,11.4c-13.1,0-28.8,0-44.4,0.1C583.6,852.9,568.1,853,555.2,853z M545.6,736.5c-1.7,9.2-2.6,23-1.1,28.1
			l0.3,1.1l0.1,1.2c0.3,2.2,0.6,4.5,0.9,6.7c0.8,6.3,1.7,12.8,2,19.6l0,0.5l0,14c0,1.4-0.1,2.9-0.2,4.5c-0.2,2.8-0.6,10.3,1.1,12.2
			c0.5,0.5,2.3,1.3,6.3,1.3c12.9,0,28.4,0,43.9-0.1c15.6,0,31.3-0.1,44.5-0.1c2.2,0,6.2-0.3,7.9-2.1c1.5-1.6,1.7-5,1.6-6.5l-0.2-1
			l0.1-0.7v-25.8c0-18.7,10.4-36.8,31.1-53.7l1.5-1.3l1-0.6c50-28.8,124.9-74.7,134.6-86.2c13.9-16.5,65.4-127,68-149.8
			c2.3-19.9-3.1-78.8-5.4-99.8l0-0.4c-1.1-13.1-2.2-20.9-3.1-25.4c-5.4,6.5-7.5,22-9.6,41.1c-0.3,2.4-0.8,7.8-1.6,14.5
			c-6,56.2-6.3,57.1-6.8,59l-0.1,0.5c-3.1,9.6-11,13.1-16.8,15.6c-1.2,0.5-2.5,1.1-3.8,1.7l-0.5,0.2l-0.5,0.2
			c-0.4,0.2-0.9,0.3-1.6,0.6c-31.4,11.1-55.2,37.5-69.7,57.7c-3.8,5.3-7.9,9.7-11.8,13.9c-2.3,2.5-4.5,4.8-6.5,7.2
			c-4,4.8-8.9,8.4-13.1,11.3c-1,0.6-1.9,1.3-2.8,1.9l-0.6,0.4c-4.4,2.9-10.4,6.9-17.8,7.5l-0.2,0c-67.9,4.5-93.6,21.9-98.1,25.3
			c-0.2,0.2-0.6,0.5-1.1,0.8C595.8,648.2,557.5,683.8,545.6,736.5z M884.7,369.4L884.7,369.4L884.7,369.4z"/>
	</g>
	<g>
		<path class="st0" d="M499.1,593.5c-15.3,0-30.9-7-47.8-21.5c-9.4-8.1-38.6-37.3-41.3-40c-64-60.2-143.6-135.2-155.1-204.8
			c-8.1-49.9,0.1-91.4,24.4-123.3c24.5-32.2,61.3-50.6,112.5-56.1l0.1,0c5-0.5,9.5-0.7,14.2-0.7c32.5,0,65.8,10.8,93,30
			c27.2-19.2,60.5-30,93-30c4.6,0,9.2,0.2,14.2,0.7l0.1,0c51.1,5.5,87.9,23.8,112.5,56c24.3,31.9,32.5,73.4,24.4,123.3
			c-11.4,69.7-91.1,144.6-155.1,204.9c-2.7,2.7-31.9,31.9-41.3,40C530.3,586.3,514.2,593.5,499.1,593.5z M394.7,174.8
			c-43.3,4.6-74,19.5-93.7,45.5c-19.6,25.7-26.1,60.2-19.2,102.5c10,60.6,86,132.1,147,189.6l0.3,0.3c8.6,8.6,32.5,32.4,39.9,38.7
			c11.6,9.9,21.7,15,30.1,15c5.8,0,15.7-2.6,30.1-15c7.4-6.3,31.3-30.1,39.9-38.7l0.3-0.3c61.1-57.5,137.1-129,147-189.6
			c6.9-42.2,0.4-76.7-19.2-102.4c-19.8-26-50.5-40.9-93.7-45.5c-4-0.4-7.8-0.6-11.4-0.6c-29.9,0-60.7,11.1-84.5,30.4l-8.6,7l-8.6-7
			c-23.8-19.3-54.6-30.4-84.4-30.4C402.4,174.2,398.8,174.4,394.7,174.8z"/>
		<path class="st0" d="M743.3,380.8h-21H619c-4.2,0-8,2.8-9.2,6.8l-9.2,29.7l-20.5-146.1c-0.6-4.6-4.5-8.1-9.1-8.3
			c-4.6-0.2-8.8,2.9-9.8,7.4l-27.5,115.4l-16.1-69.8c-1-4.3-4.8-7.4-9.2-7.5c-4.4-0.1-8.3,2.8-9.5,7.1L470,419.6l-15.4-180.2
			c-0.4-4.5-3.9-8.2-8.4-8.7c-4.5-0.6-8.8,2-10.3,6.3l-52,144.9h-86.6h-40.5c-5.3,0-9.7,4.3-9.7,9.7s4.3,9.7,9.7,9.7h54.4h79.5
			c4.1,0,7.7-2.6,9.1-6.4l39.4-109.7l16.2,189.6c0.4,4.7,4.1,8.4,8.7,8.8c0.3,0,0.6,0,0.9,0c4.3,0,8.1-2.9,9.3-7.1l33.1-119.2
			l16.8,72.9c1,4.4,4.9,7.5,9.4,7.5c0,0,0,0,0,0c4.5,0,8.4-3.1,9.4-7.4l25.2-105.7l19.4,138.3c0.6,4.5,4.3,7.9,8.8,8.3
			c4.5,0.4,8.7-2.4,10-6.8l19.9-64.2h82.4h34.8c5.3,0,9.7-4.3,9.7-9.7S748.6,380.8,743.3,380.8z"/>
	</g>
</g>
<path class="st0" d="M500,995.2c-66.8,0-131.7-13.1-192.7-38.9c-59-24.9-111.9-60.6-157.4-106.1c-45.5-45.5-81.2-98.4-106.1-157.4
	C17.9,631.7,4.8,566.8,4.8,500s13.1-131.7,38.9-192.7c24.9-59,60.6-111.9,106.1-157.4s98.4-81.2,157.4-106.1
	C368.3,17.9,433.2,4.8,500,4.8c66.8,0,131.7,13.1,192.7,38.9c59,24.9,111.9,60.6,157.4,106.1c45.5,45.5,81.2,98.4,106.1,157.4
	c25.8,61.1,38.9,125.9,38.9,192.7s-13.1,131.7-38.9,192.7c-24.9,59-60.6,111.9-106.1,157.4c-45.5,45.5-98.4,81.2-157.4,106.1
	C631.7,982.1,566.8,995.2,500,995.2z M500,18.8C234.7,18.8,18.8,234.7,18.8,500c0,265.3,215.9,481.2,481.2,481.2
	S981.2,765.3,981.2,500C981.2,234.7,765.3,18.8,500,18.8z"/>
</svg>
