<?xml version="1.0" encoding="utf-8"?>
<!-- Generator: Adobe Illustrator 24.0.2, SVG Export Plug-In . SVG Version: 6.00 Build 0)  -->
<svg version="1.1" id="Layer_1" xmlns="http://www.w3.org/2000/svg" xmlns:xlink="http://www.w3.org/1999/xlink" x="0px" y="0px"
	 viewBox="0 0 1000 1000" style="enable-background:new 0 0 1000 1000;" xml:space="preserve">
<style type="text/css">
	.st0{fill:#005686;}
</style>
<path class="st0" d="M831.7,537.7l-71.8-47.3c26.2-45.5,39.9-96.9,39.9-149.7c0-62.1-24-120.7-67.5-165
	c-44-44.8-105.2-70.5-168-70.5H435.8c-62.8,0-124,25.7-168,70.5c-43.5,44.3-67.5,102.9-67.5,165c0,52.8,13.7,104.2,39.9,149.7
	l-71.8,47.3c-22.9,15.1-29.3,46-14.2,69l11.1,16.9c3,4.5,7.9,6.9,12.9,6.9c2.9,0,5.9-0.8,8.5-2.5c7.1-4.7,9.1-14.2,4.4-21.4
	l-11.1-16.9c-5.7-8.7-3.3-20.5,5.4-26.3l16.7-11l104.8,159.1l-16.7,11c-8.7,5.7-20.5,3.3-26.3-5.4l-4.9-7.5
	c-4.7-7.1-14.3-9.1-21.4-4.4c-7.1,4.7-9.1,14.2-4.4,21.4l4.9,7.5c9.6,14.5,25.5,22.4,41.7,22.4c9.4,0,18.9-2.7,27.3-8.2l71.1-46.8
	l10.8,16.4c-7.9,16.2-12.3,34.4-12.3,53.6c0,68,55.4,123.4,123.4,123.4s123.4-55.4,123.4-123.4c0-19.2-4.4-37.4-12.3-53.6l10.8-16.4
	l71.1,46.8c8.4,5.5,17.9,8.2,27.3,8.2c16.2,0,32.1-7.9,41.7-22.4l83.9-127.4C861,583.7,854.6,552.8,831.7,537.7z M236.5,333.9
	c1.9-29.1,17.4-55.9,41.5-71.8c42.6-27.9,92-42.7,142.9-42.7h44.5L270.7,414l-10.9-12.2C243.4,383.4,234.9,358.6,236.5,333.9z
	 M508.9,219.5h73c25.7,0,51,3.8,75.2,11.1l-56.4,56.4c-6,6-6,15.8,0,21.8c3,3,7,4.5,10.9,4.5c3.9,0,7.9-1.5,10.9-4.5l66.3-66.3
	c12,5.4,23.6,11.7,34.8,18.9c24.9,16.1,40.3,43.8,41.3,74.1c0.8,23.9-7.5,47-23.5,64.8l-58.2,65.2c-10.8,12.1-26.3,19-42.5,19
	c-21.9,0-42-12.8-51.4-32.5l-17.9-37.6c-11.3-23.8-35.6-39.1-61.9-39.1h-19.2c-26.3,0-50.6,15.4-61.9,39.1l-17.9,37.6
	c-9.4,19.7-29.6,32.5-51.4,32.5c-16.2,0-31.7-6.9-42.5-19l-25.4-28.5L508.9,219.5z M289.8,197.2c38.2-38.9,91.4-61.2,146-61.2h128.5
	c54.6,0,107.8,22.3,146,61.2c11.3,11.5,21.1,24.2,29.3,37.7c-47.1-30.3-101.6-46.4-157.7-46.4h-161c-56.9,0-112.2,16.5-159.8,47.7
	c-0.8,0.5-1.6,1.1-2.3,1.6C267.2,223.3,277.6,209.6,289.8,197.2z M332.5,694.6L227.7,535.5l28.9-19.1l104.5,159.2L332.5,694.6z
	 M484.6,725.2V756h-75.8c1.9-11.1,5.7-21.5,11.1-30.8H484.6z M580.1,725.2c5.4,9.4,9.3,19.8,11.1,30.8h-75.8v-30.8H580.1z
	 M419.9,817.7c-5.4-9.4-9.3-19.8-11.1-30.8h75.8v30.8H419.9z M484.6,848.6v14.1c-13-2.2-25.1-7.1-35.7-14.1H484.6z M515.4,848.6
	h35.7c-10.6,7-22.7,11.9-35.7,14.1V848.6z M515.4,817.7v-30.8h75.8c-1.9,11.1-5.7,21.5-11.1,30.8H515.4z M515.4,694.3v-14.1
	c13,2.2,25.1,7.1,35.7,14.1H515.4z M484.6,694.3h-35.7c10.6-7,22.7-11.9,35.7-14.1V694.3z M500,648.1c-36.8,0-69.9,16.2-92.5,41.9
	L275.4,488.8c-11.2-17-20.3-35.1-27.3-53.8l45.5,51.1c16.6,18.7,40.5,29.4,65.5,29.4c33.7,0,64.8-19.7,79.3-50.1l17.9-37.6
	c6.2-13.1,19.6-21.5,34.1-21.5h19.2c14.5,0,27.8,8.4,34.1,21.5l17.9,37.6c14.5,30.4,45.6,50.1,79.3,50.1c25,0,48.9-10.7,65.5-29.4
	l45.5-51.1c-7,18.8-16.1,36.8-27.3,53.8L592.5,690C569.9,664.3,536.8,648.1,500,648.1z M743.4,516.4l28.9,19.1L667.5,694.6
	l-28.7-18.9L743.4,516.4z M820.1,589.7l-83.9,127.4c-5.8,8.7-17.5,11.2-26.3,5.4l-16.7-11L798,552.5l16.7,11
	C823.4,569.2,825.9,581,820.1,589.7z"/>
<path class="st0" d="M135,683.9c-5.1,0-10.1,2-13.7,5.7c-3.6,3.6-5.7,8.6-5.7,13.7c0,5.1,2.1,10.1,5.7,13.7
	c3.6,3.6,8.6,5.7,13.7,5.7s10.1-2.1,13.7-5.7c3.6-3.6,5.7-8.6,5.7-13.7c0-5.1-2.1-10.1-5.7-13.7C145.1,685.9,140.1,683.9,135,683.9z
	"/>
<path class="st0" d="M580.9,315.3c5.1,0,10.1-2.1,13.7-5.7s5.7-8.6,5.7-13.7c0-5.1-2.1-10.1-5.7-13.7c-3.6-3.6-8.6-5.7-13.7-5.7
	s-10.1,2.1-13.7,5.7c-3.6,3.6-5.7,8.6-5.7,13.7c0,5.1,2.1,10.1,5.7,13.7S575.8,315.3,580.9,315.3z"/>
<path class="st0" d="M500,995.2c-66.8,0-131.7-13.1-192.7-38.9c-59-24.9-111.9-60.6-157.4-106.1c-45.5-45.5-81.2-98.4-106.1-157.4
	C17.9,631.7,4.8,566.8,4.8,500s13.1-131.7,38.9-192.7c24.9-59,60.6-111.9,106.1-157.4s98.4-81.2,157.4-106.1
	C368.3,17.9,433.2,4.8,500,4.8c66.8,0,131.7,13.1,192.7,38.9c59,24.9,111.9,60.6,157.4,106.1c45.5,45.5,81.2,98.4,106.1,157.4
	c25.8,61.1,38.9,125.9,38.9,192.7s-13.1,131.7-38.9,192.7c-24.9,59-60.6,111.9-106.1,157.4c-45.5,45.5-98.4,81.2-157.4,106.1
	C631.7,982.1,566.8,995.2,500,995.2z M500,18.8C234.7,18.8,18.8,234.7,18.8,500c0,265.3,215.9,481.2,481.2,481.2
	S981.2,765.3,981.2,500C981.2,234.7,765.3,18.8,500,18.8z"/>
</svg>
