<?xml version="1.0" encoding="utf-8"?>
<!-- Generator: Adobe Illustrator 24.0.2, SVG Export Plug-In . SVG Version: 6.00 Build 0)  -->
<svg version="1.1" id="Capa_1" xmlns="http://www.w3.org/2000/svg" xmlns:xlink="http://www.w3.org/1999/xlink" x="0px" y="0px"
	 viewBox="0 0 1000 1000" style="enable-background:new 0 0 1000 1000;" xml:space="preserve">
<style type="text/css">
	.st0{fill:#005686;}
</style>
<g>
	<path class="st0" d="M304.1,783.4c-2,0-3.9-0.7-5.5-1.9c-2-1.5-3.2-3.8-3.4-6.3c-1.5-19.4-18.5-34.2-37.8-33.2
		c-15.3,0.8-28.4,11.3-32.6,26c-0.7,2.4-2.4,4.4-4.6,5.5c-2.2,1.1-4.8,1.2-7.2,0.3c-18.3-7-35.2-17-50.3-29.6
		c-2-1.6-3.1-4.1-3.2-6.6c-0.1-2.6,1-5,2.8-6.8c7.9-7.3,12.1-17.6,11.5-28.4c-1.1-19.8-18.1-35.1-37.9-34c-5,0.3-9.8,1.6-14.4,3.9
		c-2.3,1.2-5,1.3-7.3,0.3c-2.4-0.9-4.2-2.9-5.1-5.3c-5.8-16.1-9.1-33-10.1-50.1v0c-0.4-7.8-0.3-15.9,0.4-24.1
		c0.2-2.8,1.8-5.3,4.1-6.8c2.4-1.5,5.3-1.8,7.9-0.8c4.7,1.8,9.7,2.6,14.7,2.3c19.8-1.1,35.1-18.1,34-37.9c-0.8-14.6-10.2-27.1-24-32
		c-2.6-0.9-4.7-3.1-5.5-5.7c-0.8-2.7-0.4-5.6,1.2-7.9c13.7-19.3,30.8-35.3,50.8-47.8c2.3-1.4,5.2-1.8,7.8-0.8c2.6,0.9,4.6,3,5.4,5.6
		c5.1,15.4,19.9,25.6,36.1,24.7c19.8-1.1,35.1-18.1,34-37.9c-0.1-2.4-0.5-4.8-1.1-7.2c-0.7-2.6-0.1-5.5,1.5-7.6s4.2-3.5,6.9-3.5
		c22.2-0.4,44,3.2,64.6,10.8c2.4,0.9,4.3,2.7,5.2,5.1s0.8,5-0.3,7.3c-2.8,5.6-4,11.8-3.7,17.9c0.5,9.6,4.8,18.4,11.9,24.8
		c7.2,6.4,16.4,9.7,26,9.1c9-0.5,17.4-4.3,23.7-10.8c1.8-1.8,4.2-2.8,6.8-2.7c2.5,0.1,4.9,1.3,6.5,3.2
		c15.4,18.7,26.6,39.9,33.4,63.1c0.7,2.5,0.3,5.1-1,7.3c-1.4,2.2-3.6,3.6-6.2,4c-18.3,2.8-31.4,19-30.4,37.5
		c1,17.5,14.3,31.7,31.8,33.7c2.6,0.3,4.9,1.7,6.3,3.8c1.5,2.1,1.9,4.8,1.3,7.2c-4.9,19.3-13,37.6-24,54.4c-1.4,2.1-3.6,3.5-6.1,3.9
		c-2.5,0.4-5-0.3-7-1.9c-7-5.6-15.6-8.4-24.5-7.9c-19.8,1.1-35.1,18.1-34,37.9c0.3,6,2.2,11.9,5.3,17c1.3,2.1,1.7,4.7,1,7.2
		c-0.7,2.4-2.4,4.4-4.6,5.5c-15.7,7.7-32.5,13.1-49.9,15.9C305.1,783.3,304.6,783.4,304.1,783.4z M259.4,724.1
		c13.1,0,25.6,4.7,35.4,13.4c8.1,7.1,13.8,16.3,16.5,26.5c9.6-2.1,19-5.1,28.1-9c-2-5.2-3.2-10.8-3.5-16.4
		c-1.6-29.6,21.2-55.1,50.8-56.7c9.9-0.5,19.7,1.7,28.3,6.3c6-10.3,10.8-21.2,14.4-32.5c-21-6.6-36.1-25.6-37.4-48.3
		c-1.3-24.2,13.4-45.7,35.4-53.6c-5.2-14.6-12.5-28.3-21.7-40.9c-8.2,5.7-17.8,9.1-27.8,9.6c-14.4,0.8-28.2-4.1-38.9-13.7
		c-10.7-9.6-17-22.8-17.8-37.1c-0.3-5.9,0.3-11.7,1.9-17.3c-12.8-3.9-26-6.1-39.4-6.7c1.3,29.4-21.4,54.5-50.8,56.1
		c-20.3,1.1-39.2-9.4-49.3-26.4c-11.5,8.2-21.8,17.9-30.8,28.9c14.6,9.2,24.2,24.9,25.1,42.7c1.6,29.6-21.2,55.1-50.8,56.7
		c-3.5,0.2-7,0-10.5-0.5c-0.1,3.8,0,7.5,0.2,11.1l0,0c0.7,12.3,2.8,24.5,6.2,36.3c3.9-1.1,7.8-1.8,11.9-2
		c29.6-1.6,55.1,21.2,56.7,50.8c0.7,12.5-3,24.7-10.3,34.7c9.3,6.9,19.3,12.8,29.9,17.5c8.5-17,25.7-28.6,45.1-29.6
		C257.4,724.1,258.4,724.1,259.4,724.1z M274.5,699.5c-48.5,0-89.2-38.1-91.9-87.1l0,0c-1.3-24.6,7-48.2,23.4-66.5
		c16.4-18.3,39-29.1,63.6-30.5c24.6-1.3,48.2,7,66.5,23.4c18.3,16.4,29.1,39,30.5,63.6c2.8,50.7-36.2,94.2-86.9,97
		C277.8,699.5,276.1,699.5,274.5,699.5z M274.6,533.1c-1.4,0-2.7,0-4.1,0.1c-19.8,1.1-38,9.8-51.3,24.6
		c-13.2,14.8-19.9,33.8-18.9,53.6l0,0c2.2,39.5,35,70.2,74.1,70.2c1.4,0,2.7,0,4.1-0.1c40.9-2.2,72.3-37.3,70.1-78.2
		C346.5,563.8,313.7,533.1,274.6,533.1z"/>
	<path class="st0" d="M665,665.6c-2.7,0-5.3-1-7.4-2.8c-2.3-2.1-3.7-5-3.7-8.1c-0.5-31-26.1-56.3-57.1-56.4c-0.1,0-0.2,0-0.3,0
		c-24.3,0-46,15.4-54.1,38.3c-1,2.9-3.3,5.3-6.1,6.5c-2.9,1.2-6.1,1.2-9-0.1c-27-12.3-51.7-28.8-73.3-49.2c-2.3-2.2-3.6-5.3-3.5-8.5
		s1.6-6.2,4.1-8.2c13.2-10.9,20.9-27,21-44.1c0.2-31.7-25.5-57.6-57.2-57.7c-8,0-15.8,1.6-23.2,4.8c-2.9,1.3-6.3,1.2-9.2-0.1
		c-2.9-1.4-5.1-3.9-6-7c-7.2-24.9-10.8-50.7-10.7-76.5l0,0c0.1-11.8,1-24.1,2.7-36.4c0.5-3.5,2.6-6.5,5.6-8.2
		c3.1-1.7,6.8-1.8,10-0.4c7.4,3.3,15.2,5,23.2,5c0.1,0,0.2,0,0.3,0c15.2,0,29.6-5.9,40.4-16.6c10.9-10.8,16.9-25.2,17-40.5
		c0.1-23.3-13.7-44.2-35.2-53.2c-3.2-1.4-5.6-4.2-6.5-7.6c-0.9-3.4-0.1-7,2.1-9.7c22.5-27.9,49.8-50.6,81-67.6
		c3-1.6,6.6-1.8,9.7-0.4c3.1,1.4,5.5,4.1,6.4,7.4c6.6,25,29.3,42.6,55.2,42.7c0.1,0,0.2,0,0.3,0c31.6,0,57.3-25.6,57.4-57.2
		c0-3.9-0.4-7.7-1.1-11.5c-0.7-3.3,0.2-6.8,2.5-9.4c2.2-2.6,5.5-4,8.9-3.9c33.6,1.3,66.2,8.7,96.7,22c2.9,1.3,5.1,3.7,6.1,6.7
		c1,3,0.7,6.3-0.9,9c-4.9,8.6-7.5,18.3-7.6,28.2c-0.1,15.3,5.8,29.8,16.6,40.7c10.8,10.9,25.2,16.9,40.5,17c0.1,0,0.2,0,0.3,0
		c14.3,0,27.9-5.3,38.6-15c2.3-2.1,5.5-3.2,8.6-2.8c3.1,0.3,6,2,7.9,4.5c21.6,29.6,36.7,62.6,44.8,98.3c0.7,3.1,0,6.4-1.8,9
		c-1.9,2.6-4.8,4.3-8,4.6c-29.5,2.8-51.8,27.2-52,56.9c-0.1,28,19.8,51.9,47.4,56.8c3.2,0.6,5.9,2.5,7.6,5.2
		c1.7,2.7,2.1,6.1,1.1,9.1c-9.1,28.8-23,55.7-41.2,80c-1.9,2.5-4.7,4.1-7.9,4.4c-3.1,0.3-6.2-0.7-8.6-2.8
		c-10.6-9.6-24.2-14.9-38.3-15c-0.1,0-0.2,0-0.3,0c-31.6,0-57.3,25.6-57.4,57.2c0,9.6,2.3,19.1,6.9,27.5c1.5,2.8,1.7,6,0.7,9
		s-3.3,5.4-6.2,6.6c-24.4,10.3-50.3,16.9-76.8,19.6C665.8,665.6,665.4,665.6,665,665.6z M596.5,575.9c0.1,0,0.3,0,0.4,0
		c21,0.1,40.8,8.3,55.7,23.1c11.9,11.8,19.7,26.8,22.5,43c16.7-2.5,33-6.6,48.7-12.4c-3-8.6-4.5-17.7-4.5-26.8
		c0.2-43.8,35.9-79.4,79.7-79.4c0.1,0,0.3,0,0.4,0c15.5,0.1,30.5,4.7,43.3,13.1c11.3-16.6,20.5-34.3,27.4-53
		c-31.7-11-53.5-41-53.4-75.6c0.1-19.9,7.6-38.9,21-53.6c10.4-11.3,23.8-19.3,38.4-23.2c-6.9-24.7-17.5-48-31.7-69.4
		c-12.9,8.5-28,13.1-43.6,13.1c-0.1,0-0.3,0-0.4,0c-44-0.2-79.6-36.2-79.4-80.1c0-9.5,1.8-18.9,5.2-27.7c-20.9-8-42.7-13-65.2-15
		c0,0.6,0,1.2,0,1.8c-0.2,43.8-35.9,79.4-79.7,79.4c-0.1,0-0.3,0-0.4,0c-31.1-0.1-58.9-18.4-71.7-45.9
		c-20.2,12.4-38.4,27.6-54.4,45.3c22.2,14.7,35.9,39.6,35.7,66.9c-0.1,21.3-8.5,41.3-23.6,56.3c-15.1,15-35.2,23.2-56.5,23.1
		c-6.2,0-12.2-0.8-18.2-2.2c-0.6,6.8-0.9,13.5-0.9,20c-0.1,19.8,2.2,39.6,6.8,58.9c6.5-1.7,13.3-2.5,20.1-2.5
		c44,0.2,79.6,36.2,79.4,80.1c-0.1,19.4-7.2,37.9-19.9,52.3c14.8,12.7,31.1,23.6,48.4,32.4C540.1,592.3,567,575.9,596.5,575.9z
		 M635,535.3c-0.2,0-0.5,0-0.7,0c-36.9-0.2-71.6-14.7-97.5-40.9c-26-26.2-40.2-61-40-97.9c0.4-76,62.3-137.5,138.2-137.5
		c0.2,0,0.4,0,0.7,0c76.2,0.4,137.9,62.7,137.5,138.9c-0.2,36.9-14.7,71.6-40.9,97.5C706.2,521.1,671.7,535.3,635,535.3z M635,281.1
		c-63.7,0-115.6,51.6-115.9,115.4c-0.1,31,11.8,60.1,33.6,82.1c21.8,22,50.8,34.2,81.8,34.3c31,0.1,60.1-11.8,82.1-33.6
		c22-21.8,34.2-50.8,34.3-81.8c0.3-63.9-51.4-116.2-115.4-116.5C635.4,281.1,635.2,281.1,635,281.1z"/>
	<path class="st0" d="M468.8,871.3c-1,0-2.1-0.3-2.9-0.9c-1.3-0.8-2.1-2.1-2.3-3.6c-1.3-8.2-9.1-13.9-17.3-12.8
		c-6.5,0.9-11.7,5.8-12.9,12.2c-0.3,1.5-1.2,2.8-2.5,3.5c-1.3,0.8-2.8,1-4.3,0.6c-8.8-2.6-17.1-6.5-24.6-11.8
		c-1.3-0.9-2.1-2.3-2.2-3.8c-0.2-1.5,0.3-3.1,1.4-4.2c3.1-3.4,4.5-7.9,3.9-12.5c-1.2-8.4-9-14.3-17.4-13.1c-2.1,0.3-4.1,1-6,2.2
		c-1.3,0.8-2.9,1-4.4,0.6c-1.5-0.4-2.7-1.5-3.3-2.9c-3.3-7.3-5.6-15-6.7-23c-0.5-3.6-0.8-7.4-0.8-11.3c0-1.7,0.8-3.3,2.1-4.3
		c1.3-1,3.1-1.3,4.7-0.9c2.1,0.6,4.2,0.7,6.3,0.5c8.4-1.2,14.3-9,13.1-17.4c-0.9-6.2-5.3-11.2-11.4-12.8c-1.6-0.4-3-1.6-3.6-3.1
		c-0.6-1.6-0.5-3.3,0.3-4.8c5.7-9.5,13-17.7,21.8-24.3c1.3-1,3-1.3,4.6-0.9c1.6,0.4,2.9,1.6,3.5,3.1c2.7,6.4,9.4,10.2,16.3,9.2
		c4.1-0.6,7.7-2.7,10.1-6s3.5-7.3,3-11.4c-0.1-1-0.4-2-0.7-3c-0.5-1.5-0.4-3.3,0.5-4.6c0.9-1.4,2.3-2.3,4-2.5
		c10.4-1.1,20.7-0.2,30.6,2.5c1.5,0.4,2.7,1.4,3.4,2.8c0.7,1.4,0.7,2.9,0.2,4.4c-1,2.5-1.3,5.1-0.9,7.8c1.2,8.4,9,14.3,17.4,13.1
		c3.8-0.5,7.3-2.5,9.7-5.5c1-1.2,2.4-1.9,3.9-1.9c1.5-0.1,3,0.5,4.1,1.6c7.9,8.1,14,17.6,18.1,28.1c0.6,1.4,0.5,3-0.3,4.4
		c-0.7,1.4-2,2.4-3.5,2.7c-7.7,1.9-12.7,9.2-11.6,17.1c1,7.4,7.2,13,14.7,13.2c1.5,0,3,0.8,4,1.9c1,1.2,1.4,2.7,1.1,4.3
		c-1.5,9.2-4.6,18.1-9.1,26.3c-0.7,1.3-2,2.3-3.4,2.6c-1.5,0.4-3,0.1-4.3-0.8c-3.2-2.1-7-3-10.7-2.5c-4.1,0.6-7.7,2.7-10.1,6
		c-2.5,3.3-3.5,7.3-3,11.4c0.4,2.5,1.3,5,2.9,7c0.9,1.2,1.2,2.7,1,4.2c-0.3,1.5-1.2,2.8-2.5,3.5c-7,4.2-14.7,7.4-22.7,9.4
		C469.7,871.2,469.2,871.3,468.8,871.3z M448.3,843.2c10.6,0,20.1,6.5,24.1,16.1c3.5-1.2,6.9-2.6,10.2-4.2c-0.9-2.1-1.5-4.4-1.9-6.7
		c-1-6.9,0.8-13.8,5-19.3c4.2-5.6,10.3-9.2,17.2-10.1c4.4-0.6,8.8-0.1,12.8,1.5c1.9-4.2,3.4-8.5,4.5-13c-9.8-2.7-17.4-11-18.8-21.5
		c-1.6-11.2,4.2-21.8,13.8-26.8c-2.7-5.6-6-10.9-10.1-15.7c-3.5,2.7-7.7,4.4-12.1,5c-14.2,2-27.4-8-29.4-22.2
		c-0.3-2.4-0.3-4.9,0-7.3c-5.1-1-10.4-1.5-15.6-1.3c0.5,6.3-1.3,12.6-5.2,17.7c-4.2,5.6-10.3,9.2-17.2,10.1
		c-9.3,1.3-18.4-2.6-24.1-9.7c-4.1,3.7-7.8,7.8-11.1,12.3c6.8,4,11.5,10.8,12.6,18.9c2,14.2-8,27.4-22.2,29.4
		c-1.2,0.2-2.4,0.3-3.7,0.3c0.1,1.2,0.2,2.5,0.4,3.7l0,0c0.7,5.1,2,10.2,3.8,15.1c1.5-0.5,3-0.8,4.5-1c14.2-2,27.4,8,29.4,22.2
		c0.8,5.6-0.3,11.2-2.9,16.1c3.8,2.3,7.9,4.2,12.1,5.8c3.6-8,11.2-13.8,20.1-15C445.9,843.2,447.1,843.2,448.3,843.2z M448.7,834
		c-21.5,0-40.3-15.9-43.3-37.7l0,0c-3.3-23.9,13.4-46,37.3-49.4c11.6-1.6,23.1,1.4,32.4,8.4c9.3,7,15.3,17.3,17,28.9
		c1.6,11.6-1.4,23.1-8.4,32.4c-7,9.3-17.3,15.3-28.9,17C452.7,833.8,450.7,834,448.7,834z M416,794.8c2.5,18,19.2,30.7,37.3,28.2
		c8.7-1.2,16.5-5.8,21.8-12.8c5.3-7,7.6-15.7,6.4-24.5c-1.2-8.7-5.8-16.5-12.8-21.8c-7-5.3-15.7-7.6-24.5-6.4
		c-8.7,1.2-16.5,5.8-21.8,12.8C417,777.4,414.7,786,416,794.8L416,794.8z"/>
</g>
<path class="st0" d="M500,995.2c-66.8,0-131.7-13.1-192.7-38.9c-59-24.9-111.9-60.6-157.4-106.1c-45.5-45.5-81.2-98.4-106.1-157.4
	C17.9,631.7,4.8,566.8,4.8,500s13.1-131.7,38.9-192.7c24.9-59,60.6-111.9,106.1-157.4s98.4-81.2,157.4-106.1
	C368.3,17.9,433.2,4.8,500,4.8c66.8,0,131.7,13.1,192.7,38.9c59,24.9,111.9,60.6,157.4,106.1c45.5,45.5,81.2,98.4,106.1,157.4
	c25.8,61.1,38.9,125.9,38.9,192.7s-13.1,131.7-38.9,192.7c-24.9,59-60.6,111.9-106.1,157.4c-45.5,45.5-98.4,81.2-157.4,106.1
	C631.7,982.1,566.8,995.2,500,995.2z M500,18.8C234.7,18.8,18.8,234.7,18.8,500c0,265.3,215.9,481.2,481.2,481.2
	S981.2,765.3,981.2,500C981.2,234.7,765.3,18.8,500,18.8z"/>
</svg>
